<svg width="168" height="143" viewBox="0 0 168 143" fill="none" xmlns="http://www.w3.org/2000/svg">
<path opacity="0.4" d="M6 143L24.4 71.8C17.7333 69.6666 12 65.6667 7.2 59.8C2.4 53.6667 0 46.0667 0 37C0 26.3333 3.46667 17.5333 10.4 10.6C17.6 3.66662 26.6667 0.199951 37.6 0.199951C48.5333 0.199951 57.4667 3.79995 64.4 11C71.6 17.9333 75.2 27 75.2 38.2C75.2 46.4667 74.1333 54.2 72 61.4C69.8667 68.6 66.6667 77.6666 62.4 88.6L41.2 143H6ZM98 143L116.4 71.8C109.733 69.6666 104 65.6667 99.2 59.8C94.4 53.6667 92 46.0667 92 37C92 26.3333 95.4667 17.5333 102.4 10.6C109.6 3.66662 118.667 0.199951 129.6 0.199951C140.533 0.199951 149.467 3.79995 156.4 11C163.6 17.9333 167.2 27 167.2 38.2C167.2 46.4667 166.133 54.2 164 61.4C161.867 68.6 158.667 77.6666 154.4 88.6L133.2 143H98Z" fill="#2C4392"/>
</svg>
