<svg width="80" height="80" viewBox="0 0 80 80" fill="none" xmlns="http://www.w3.org/2000/svg">
<path d="M64 72C66.1217 72 68.1566 71.1571 69.6569 69.6569C71.1571 68.1566 72 66.1217 72 64V16C72 13.8783 71.1571 11.8434 69.6569 10.3431C68.1566 8.84286 66.1217 8 64 8H16C13.8783 8 11.8434 8.84286 10.3431 10.3431C8.84286 11.8434 8 13.8783 8 16L8 64C8 66.1217 8.84286 68.1566 10.3431 69.6569C11.8434 71.1571 13.8783 72 16 72H64ZM38 54L38 30.828L29.416 39.416C29.23 39.602 29.0093 39.7495 28.7663 39.8501C28.5234 39.9507 28.263 40.0025 28 40.0025C27.737 40.0025 27.4766 39.9507 27.2337 39.8501C26.9907 39.7495 26.77 39.602 26.584 39.416C26.398 39.23 26.2505 39.0093 26.1499 38.7663C26.0493 38.5234 25.9975 38.263 25.9975 38C25.9975 37.737 26.0493 37.4766 26.1499 37.2337C26.2505 36.9907 26.398 36.77 26.584 36.584L38.584 24.584C38.7698 24.3977 38.9905 24.25 39.2335 24.1492C39.4764 24.0483 39.7369 23.9964 40 23.9964C40.2631 23.9964 40.5236 24.0483 40.7665 24.1492C41.0095 24.25 41.2302 24.3977 41.416 24.584L53.416 36.584C53.602 36.77 53.7495 36.9907 53.8501 37.2337C53.9507 37.4766 54.0025 37.737 54.0025 38C54.0025 38.263 53.9507 38.5234 53.8501 38.7663C53.7495 39.0093 53.602 39.23 53.416 39.416C53.0405 39.7915 52.5311 40.0025 52 40.0025C51.737 40.0025 51.4766 39.9507 51.2337 39.8501C50.9907 39.7495 50.77 39.602 50.584 39.416L42 30.828V54C42 54.5304 41.7893 55.0391 41.4142 55.4142C41.0391 55.7893 40.5304 56 40 56C39.4696 56 38.9609 55.7893 38.5858 55.4142C38.2107 55.0391 38 54.5304 38 54Z" fill="#F0F7FB"/>
</svg>
