<svg width="74" height="72" viewBox="0 0 74 72" fill="none" xmlns="http://www.w3.org/2000/svg">
<path d="M37.1174 26.3323C31.9531 26.3323 27.7386 30.4819 27.7386 35.5668C27.7386 40.6517 31.9531 44.8013 37.1174 44.8013C42.2818 44.8013 46.4963 40.6517 46.4963 35.5668C46.4963 30.4819 42.2818 26.3323 37.1174 26.3323ZM65.2469 35.5668C65.2469 31.7427 65.282 27.9533 65.0639 24.1362C64.8458 19.7025 63.8186 15.7676 60.5258 12.5255C57.226 9.27644 53.2366 8.27194 48.7337 8.05718C44.8499 7.84242 41.0012 7.87706 37.1245 7.87706C33.2407 7.87706 29.3921 7.84242 25.5153 8.05718C21.0123 8.27194 17.016 9.28337 13.7232 12.5255C10.4233 15.7746 9.40314 19.7025 9.18503 24.1362C8.96691 27.9603 9.00209 31.7497 9.00209 35.5668C9.00209 39.3839 8.96691 43.1803 9.18503 46.9974C9.40314 51.4311 10.4304 55.366 13.7232 58.6081C17.023 61.8571 21.0123 62.8617 25.5153 63.0764C29.3991 63.2912 33.2477 63.2565 37.1245 63.2565C41.0083 63.2565 44.8569 63.2912 48.7337 63.0764C53.2366 62.8617 57.233 61.8502 60.5258 58.6081C63.8256 55.359 64.8458 51.4311 65.0639 46.9974C65.2891 43.1803 65.2469 39.3908 65.2469 35.5668ZM37.1174 49.7754C29.1317 49.7754 22.6869 43.4297 22.6869 35.5668C22.6869 27.7039 29.1317 21.3582 37.1174 21.3582C45.1032 21.3582 51.548 27.7039 51.548 35.5668C51.548 43.4297 45.1032 49.7754 37.1174 49.7754ZM52.139 24.0946C50.2745 24.0946 48.7688 22.6121 48.7688 20.7763C48.7688 18.9405 50.2745 17.458 52.139 17.458C54.0035 17.458 55.5092 18.9405 55.5092 20.7763C55.5098 21.2122 55.423 21.644 55.2538 22.0468C55.0846 22.4497 54.8364 22.8157 54.5233 23.1239C54.2103 23.4322 53.8385 23.6766 53.4294 23.8432C53.0203 24.0097 52.5818 24.0952 52.139 24.0946Z" fill="#F0F7FB"/>
</svg>
