<svg width="72" height="72" viewBox="0 0 72 72" fill="none" xmlns="http://www.w3.org/2000/svg">
<path d="M61.7926 10.9919H10.7566C9.67088 10.9919 8.7937 11.9974 8.7937 13.2419V58.2419C8.7937 59.4865 9.67088 60.4919 10.7566 60.4919H61.7926C62.8783 60.4919 63.7555 59.4865 63.7555 58.2419V13.2419C63.7555 11.9974 62.8783 10.9919 61.7926 10.9919ZM56.8362 18.649L37.483 35.9107C37.0046 36.3396 36.336 36.3396 35.8575 35.9107L16.4982 18.649C16.4252 18.5844 16.3717 18.4953 16.3451 18.3941C16.3185 18.2929 16.3202 18.1848 16.35 18.0848C16.3798 17.9848 16.4361 17.8979 16.511 17.8365C16.586 17.775 16.6759 17.7419 16.7681 17.7419H56.5663C56.6585 17.7419 56.7484 17.775 56.8234 17.8365C56.8983 17.8979 56.9547 17.9848 56.9844 18.0848C57.0142 18.1848 57.0159 18.2929 56.9893 18.3941C56.9627 18.4953 56.9092 18.5844 56.8362 18.649Z" fill="#F0F7FB"/>
</svg>
