<svg width="64" height="64" viewBox="0 0 64 64" fill="none" xmlns="http://www.w3.org/2000/svg">
<path fill-rule="evenodd" clip-rule="evenodd" d="M32 0C14.3273 0 0 14.3273 0 32C0 49.6727 14.3273 64 32 64C49.6727 64 64 49.6727 64 32C64 14.3273 49.6727 0 32 0ZM45.8705 26.5891C46.126 26.2971 46.3204 25.9571 46.4424 25.5889C46.5645 25.2206 46.6116 24.8318 46.5812 24.445C46.5507 24.0583 46.4432 23.6816 46.2649 23.3371C46.0867 22.9926 45.8414 22.6871 45.5434 22.4388C45.2454 22.1905 44.9008 22.0043 44.5297 21.8911C44.1587 21.7779 43.7688 21.7401 43.3829 21.7799C42.9971 21.8196 42.6231 21.9361 42.2829 22.1226C41.9427 22.309 41.6433 22.5616 41.4022 22.8655L28.8931 37.8735L22.4204 31.3978C21.8717 30.8679 21.1369 30.5747 20.3741 30.5813C19.6114 30.5879 18.8817 30.8939 18.3423 31.4333C17.803 31.9726 17.497 32.7023 17.4904 33.465C17.4838 34.2278 17.777 34.9626 18.3069 35.5113L27.0342 44.2385C27.32 44.5242 27.6622 44.7472 28.039 44.8933C28.4158 45.0393 28.8189 45.1053 29.2226 45.087C29.6263 45.0686 30.0217 44.9664 30.3837 44.7868C30.7457 44.6071 31.0663 44.354 31.3251 44.0436L45.8705 26.5891Z" fill="#2C4392"/>
</svg>
